PathFileType	4	(X/Y/Z)	OpenSim_Sub09_EMGBaseline_Accel.trc
DataRate	CameraRate	NumFrames	NumMarkers	Units	OrigDataRate	OrigDataStartFrame	OrigNumFrames
100	100	31	8	m	100	4564	7301
Frame#	Time	torso_imu_offset_imu	pelvis_imu_offset_imu	tibia_r_imu_offset_imu	femur_r_imu_offset_imu	tibia_l_imu_offset_imu	femur_l_imu_offset_imu	toes_r_imu_offset_imu	toes_l_imu_offset_imu
				X1	Y1	Z1	X2	Y2	Z2	X3	Y3	Z3	X4	Y4	Z4	X5	Y5	Z5	X6	Y6	Z6	X7	Y7	Z7	X8		Y8	Z8	

4564	45.63000000	8.10078500	-0.95616900	5.76872500	8.80977800	0.25413400	2.85668500	9.68591000	0.23851500	0.39905600	9.02150800	-2.30060400	0.20616500	3.56043400	-3.60404800	2.20211100	8.58698000	1.00025600	0.68840400	5.05366800	-2.57291200	8.15998000	2.82133100	2.69975400	10.93738800
4565	45.64000000	8.09257900	-0.95328500	5.80437400	8.80663200	0.17792300	2.84069800	9.71778400	0.11740800	0.41349900	8.96906200	-2.71399000	0.11554200	4.26715300	-4.25657300	2.16834900	8.79286400	1.17016700	0.70969500	5.34547700	-2.55970600	7.97163400	3.78182500	2.31381500	11.63432600
4566	45.65000000	8.09058200	-0.99419100	5.87980100	8.81008500	0.03380400	2.77651200	9.77089400	0.28183500	0.39309100	8.95111600	-2.78375400	-0.07078000	5.06028900	-4.87433800	2.25597900	9.02845500	1.21509500	0.59611800	5.30503200	-2.54544000	8.06325900	4.82266300	1.96914400	12.03601600
4567	45.66000000	8.09884400	-0.91737200	5.91718800	8.88404600	-0.00614300	2.74978600	9.84000300	0.58179400	0.46762700	8.96403700	-2.64855100	-0.20307400	5.93540100	-5.20947200	2.23790200	9.03886400	1.30471000	0.35526700	5.11371700	-2.49938000	8.20519500	5.56505500	1.88061900	12.63348200
4568	45.67000000	8.22914700	-0.87970900	5.95519500	8.97162100	-0.07200400	2.77823700	9.90623700	0.89602700	0.62272000	9.01464400	-2.47897500	-0.33956400	6.77893100	-5.20677000	2.10034000	8.89961600	1.43615700	0.16928700	5.14472700	-2.32148300	8.31162000	6.47924500	1.79951800	12.96226900
4569	45.68000000	8.30094500	-0.82592400	6.03042500	8.98953300	-0.15873300	2.70845100	9.95493300	0.91765600	0.52487300	9.09672700	-2.39648200	-0.51037100	7.31560400	-4.90928200	1.96258500	8.84522100	1.44292400	0.08003000	5.28919200	-2.36939000	8.04154000	7.58447000	1.86991900	13.13978300
4570	45.69000000	8.40058300	-0.81383300	6.07127300	8.96958000	-0.17291000	2.68960000	9.98795600	0.74652500	0.31089600	9.05300900	-2.28110600	-0.77996500	7.59901700	-4.49943000	1.99024300	8.66338300	1.52541800	0.14297700	5.12254700	-2.38898300	8.12374800	8.32766800	2.12327300	13.13180900
4571	45.70000000	8.37564900	-0.78064000	6.01978800	8.90521900	-0.07225700	2.64000000	9.97266600	0.40911300	0.22293600	8.96192300	-2.09551700	-0.84018200	7.79961200	-4.31376900	2.39943500	8.71457700	1.50767900	0.50032000	5.02698700	-2.59761100	8.03543600	8.77423800	2.45888900	13.08889800
4572	45.71000000	8.38374100	-0.74875000	6.03345200	8.88513900	0.07856400	2.62150300	9.82539900	-0.02113000	-0.02446500	8.82904900	-1.87929500	-0.78172200	8.27343800	-4.44474300	2.63377200	8.74906200	1.64808000	0.80462200	5.09493500	-2.64553000	8.02666400	9.22865500	2.70448100	13.17156300
4573	45.72000000	8.49630900	-0.79172500	6.08318600	8.85505800	0.21674500	2.50248300	9.69864800	-0.37895900	-0.43169100	8.81689000	-1.74644000	-0.67674900	8.89322300	-4.83394600	2.44667200	8.78825900	1.72691800	1.05699900	4.87979100	-2.70759100	8.22457400	9.52160000	2.64141300	13.23814200
4574	45.73000000	8.56537500	-0.80207000	6.12801100	8.91743600	0.42783900	2.44389200	9.74024300	-0.49284000	-0.47377800	8.82458400	-1.73098300	-0.70667300	9.40560900	-5.21128300	2.16725900	8.59476400	1.89333400	1.07218400	5.23173900	-2.60367900	8.00195100	9.81659600	2.56943600	13.44143500
4575	45.74000000	8.59569200	-0.79630700	6.13814700	8.86934400	0.55571200	2.37940000	9.81043800	-0.39745700	-0.36600300	8.91166300	-1.73216500	-0.64352600	9.52000600	-5.43193000	2.00006300	8.42608100	2.27563700	1.03310300	5.00787200	-2.45690000	8.18973100	10.35708900	2.65386400	13.76800000
4576	45.75000000	8.61323500	-0.78330100	6.20079800	8.95247400	0.68054300	2.32523900	9.90492600	-0.07628100	-0.25799700	8.97101600	-1.64488400	-0.46167600	9.42264700	-5.51094300	1.97401300	8.29655200	2.74557500	1.03661400	5.13330500	-2.36720800	8.15610300	11.02127200	3.15491100	14.13089700
4577	45.76000000	8.69837400	-0.84056500	6.15420600	8.96492900	0.72701400	2.27913400	9.87874300	0.51073700	0.02268400	9.06462100	-1.49821100	-0.38347200	9.45685100	-5.43447300	1.76427400	8.52321600	2.88928000	1.04498300	5.03022500	-2.26971100	8.33444600	11.39623800	3.65809700	14.31904900
4578	45.77000000	8.75450200	-0.87860800	6.13241200	9.09979700	0.84216700	2.20730200	9.78228000	1.28979500	0.11027700	9.13149000	-1.50441800	-0.23683100	9.71920200	-4.88675400	1.51361100	8.41995000	3.13435300	0.98772200	5.03249100	-2.03756200	8.43398700	11.68451800	3.72295500	14.51196600
4579	45.78000000	8.84973600	-0.88427900	6.08168400	9.17593300	0.86109400	2.15752100	9.79952600	2.01882200	-0.00757000	9.25220800	-1.38439300	-0.08662700	10.03781900	-3.93122600	1.34008300	8.40373400	3.27443400	1.03790500	5.19179200	-2.06183800	8.36595300	11.87705200	3.36538700	14.39152000
4580	45.79000000	8.93533200	-0.88599800	6.16524100	9.24878100	0.91022900	2.15270200	9.84711300	2.42828800	0.01960700	9.36400300	-1.22311500	0.01675600	10.20780600	-2.62098300	1.40432200	8.38724900	3.42293100	1.17571900	4.99402300	-2.15584800	8.49626200	11.70971200	2.78261500	13.88628600
4581	45.80000000	8.96788100	-0.89902200	6.14855700	9.26933300	0.97427600	2.07903500	9.81448500	2.67343500	-0.05852600	9.22548500	-1.04853900	-0.02260700	10.25656800	-1.21448100	1.77046300	8.26101600	3.67876600	1.01803900	5.13713000	-2.10111500	8.46493200	11.32762000	2.37932400	13.30901700
4582	45.81000000	9.05016900	-0.87543700	6.16166300	9.29045300	0.94834600	2.02824300	9.65115400	2.78691500	-0.09824600	9.26988300	-0.75629800	-0.10375300	10.23741900	-0.05109200	2.23299100	8.35845600	3.69580800	0.94587500	5.29048000	-2.05720100	8.31831300	11.03775800	2.30707200	12.67897000
4583	45.82000000	9.03585400	-0.85831800	6.14428300	9.28042700	1.10617900	2.01739100	9.52311500	2.72131700	0.21318400	9.31824300	-0.44803100	-0.08726600	10.34900200	0.71358600	2.63335300	8.23425700	3.95063000	0.83525100	5.43716900	-1.82704400	8.35088000	10.77903500	2.25170700	12.16330200
4584	45.83000000	8.99916100	-0.81497800	6.13063300	9.23512200	1.13613000	2.01320000	9.46732900	2.63675900	0.38430200	9.33741100	-0.17068800	0.02069100	10.61314100	1.03037800	2.88442800	8.22532700	4.05326800	0.88828700	5.30150600	-1.79183900	8.44784800	10.84003600	2.87603500	11.85314300
4585	45.84000000	8.94980700	-0.82551900	6.12495200	9.21040900	1.16289200	2.07926200	9.62058800	2.39946800	0.48824900	9.34338700	0.01082300	0.09176000	10.78459300	1.07009600	2.76692200	8.13916400	4.19145400	1.01634000	5.28108900	-1.87081700	8.40034200	11.03466700	2.98157800	11.44546100
4586	45.85000000	8.94738400	-0.76081500	6.18730300	9.18976100	1.24229900	2.11943400	9.88153100	2.02037500	0.47801100	9.37765700	0.06773900	0.03670200	11.02542900	1.09315900	2.19822500	8.02350700	4.38990800	1.12093000	5.08720900	-1.85245800	8.60213600	10.95475200	2.17839600	11.10870300
4587	45.86000000	8.96097900	-0.78404000	6.12219200	9.18133300	1.30405700	2.17206200	9.96591200	1.54988000	0.02305100	9.34985800	0.01140800	-0.04956800	11.09903400	1.12986800	1.70318400	7.89122100	4.77046000	1.17558400	5.48311000	-1.79599000	8.36279400	10.64567400	1.86836700	10.68694200
4588	45.87000000	8.93134200	-0.80187400	6.12750600	9.21277000	1.36913900	2.23828000	9.72832800	1.36076000	-0.05182900	9.28933900	-0.05501100	-0.21930000	11.07484200	1.01052500	1.09602600	7.76285000	5.15667600	1.03943600	5.27273800	-1.87989700	8.38780000	10.25053100	0.12202800	10.06211800
4589	45.88000000	8.97985300	-0.80309300	6.13756400	9.22518600	1.51237400	2.46372800	9.58928800	1.47196800	-0.10152000	9.21321700	-0.22262600	-0.25438000	11.18246300	0.82375300	0.03006800	7.59514700	5.71584100	0.97657000	5.26007900	-1.99762400	8.47668400	9.38142900	-2.38023400	9.32891800
4590	45.89000000	8.94374400	-0.80522900	6.17556600	9.23515500	1.50069000	2.31496100	9.63745100	1.70785700	-0.19750600	9.24428600	-0.28778800	-0.36017900	11.05564100	0.71124900	-0.98164000	7.50721400	6.47728100	1.12505800	5.22245500	-2.05713800	8.47305600	9.56831800	-2.74719300	8.15733100
4591	45.90000000	8.78110000	-0.83030500	6.08900100	9.18978600	1.44530900	2.24850300	9.58660600	2.10203500	-0.14820700	9.30938200	-0.30126000	-0.34874200	10.39783300	2.12020500	-0.50033600	7.43782000	7.07423800	1.04622600	5.48881900	-1.91602000	8.29852400	10.68269800	-1.64920400	6.72669100
4592	45.91000000	8.72184200	-0.81973700	6.02124600	9.09297500	1.40386700	2.15408500	9.51254000	2.68172900	-0.05259400	9.29225500	-0.28851500	-0.16409000	9.50289400	3.63409100	1.09843500	7.50236700	7.23997500	0.88580100	5.52027400	-1.79932500	8.37258500	11.72012000	-1.09811800	5.41780000
4593	45.92000000	8.78701200	-0.84848100	6.03603600	8.96467900	1.37555200	2.10182500	9.34345800	3.42486900	0.11468900	9.32887700	-0.07214000	0.00112800	8.45329000	3.45658000	2.70289100	7.78909300	7.27766500	1.07852400	5.53016300	-1.75613200	8.36793200	12.18136200	-2.05684400	4.11259000
4594	45.93000000	8.80921200	-0.88574200	6.01051600	8.91205500	1.39378800	1.99378200	9.32872900	3.77645600	0.35535000	9.30588600	-0.04615900	0.09755300	8.00508400	2.84234600	3.57106200	8.07697500	7.23014100	1.31566200	5.50258800	-1.39672600	8.54975000	11.49077100	-3.55164300	3.35480200
